<svg width="44" height="44" viewBox="0 0 44 44" fill="none" xmlns="http://www.w3.org/2000/svg">
<path fill-rule="evenodd" clip-rule="evenodd" d="M0 21.8667C0 9.79004 9.79004 0 21.8667 0C33.9433 0 43.7333 9.79004 43.7333 21.8667C43.7333 33.9433 33.9433 43.7333 21.8667 43.7333C9.79004 43.7333 0 33.9433 0 21.8667ZM21.8667 10.9333C27.88 10.9333 32.8 15.8533 32.8 21.8667C32.8 27.3333 28.8367 31.98 23.37 32.8V25.01H25.9667L26.5133 21.8667H23.5067V19.8167C23.5067 18.9967 23.9167 18.1767 25.2833 18.1767H26.65V15.4433C26.65 15.4433 25.42 15.17 24.19 15.17C21.73 15.17 20.09 16.6733 20.09 19.4067V21.8667H17.3567V25.01H20.09V32.6633C14.8967 31.8433 10.9333 27.3333 10.9333 21.8667C10.9333 15.8533 15.8533 10.9333 21.8667 10.9333Z" fill="#8C30F5"/>
</svg>
