<svg width="52" height="52" viewBox="0 0 52 52" fill="none" xmlns="http://www.w3.org/2000/svg">
<g filter="url(#filter0_d_26_430)">
<path d="M26.0666 25.6933C24.0166 25.6933 22.24 24.0533 22.24 21.8667C22.24 19.8167 23.88 18.04 26.0666 18.04C28.1166 18.04 29.8933 19.68 29.8933 21.8667C29.8933 23.9167 28.1166 25.6933 26.0666 25.6933Z" fill="#8C30F5"/>
<path fill-rule="evenodd" clip-rule="evenodd" d="M30.7133 12.5733H21.42C20.3266 12.71 19.78 12.8467 19.37 12.9833C18.8233 13.12 18.4133 13.3933 18.0033 13.8033C17.6789 14.1278 17.5256 14.4522 17.3403 14.8443C17.2915 14.9477 17.2403 15.056 17.1833 15.17C17.1621 15.2334 17.1377 15.3001 17.1116 15.3716C16.9686 15.7622 16.7733 16.2958 16.7733 17.22V26.5133C16.91 27.6067 17.0466 28.1533 17.1833 28.5633C17.32 29.11 17.5933 29.52 18.0033 29.93C18.3277 30.2544 18.6521 30.4077 19.0443 30.593C19.1477 30.6419 19.2559 30.6929 19.37 30.75C19.4334 30.7711 19.5001 30.7955 19.5716 30.8217C19.9622 30.9647 20.4958 31.16 21.42 31.16H30.7133C31.8066 31.0233 32.3533 30.8867 32.7633 30.75C33.3099 30.6133 33.72 30.34 34.13 29.93C34.4544 29.6056 34.6077 29.2811 34.7929 28.889C34.8418 28.7856 34.8929 28.6774 34.95 28.5633C34.9711 28.4999 34.9955 28.4332 35.0217 28.3617C35.1646 27.9711 35.36 27.4375 35.36 26.5133V17.22C35.2233 16.1267 35.0866 15.58 34.95 15.17C34.8133 14.6233 34.5399 14.2133 34.13 13.8033C33.8055 13.4789 33.4811 13.3256 33.089 13.1403C32.9857 13.0915 32.8772 13.0403 32.7633 12.9833C32.6999 12.9622 32.6332 12.9378 32.5617 12.9116C32.1711 12.7686 31.6375 12.5733 30.7133 12.5733ZM26.0666 15.99C22.7866 15.99 20.19 18.5867 20.19 21.8667C20.19 25.1467 22.7866 27.7433 26.0666 27.7433C29.3466 27.7433 31.9433 25.1467 31.9433 21.8667C31.9433 18.5867 29.3466 15.99 26.0666 15.99ZM33.4466 15.8533C33.4466 16.6081 32.8347 17.22 32.08 17.22C31.3252 17.22 30.7133 16.6081 30.7133 15.8533C30.7133 15.0985 31.3252 14.4867 32.08 14.4867C32.8347 14.4867 33.4466 15.0985 33.4466 15.8533Z" fill="#8C30F5"/>
<path fill-rule="evenodd" clip-rule="evenodd" d="M4.19995 21.8667C4.19995 9.79004 13.99 0 26.0666 0C38.1432 0 47.9333 9.79004 47.9333 21.8667C47.9333 33.9433 38.1432 43.7333 26.0666 43.7333C13.99 43.7333 4.19995 33.9433 4.19995 21.8667ZM21.42 10.5233H30.7133C31.9433 10.66 32.7633 10.7967 33.4466 11.07C34.2666 11.48 34.8133 11.7533 35.4966 12.4367C36.18 13.12 36.59 13.8033 36.8633 14.4867C37.1366 15.17 37.41 15.99 37.41 17.22V26.5133C37.2733 27.7433 37.1366 28.5633 36.8633 29.2467C36.4533 30.0667 36.18 30.6133 35.4966 31.2967C34.8133 31.98 34.13 32.39 33.4466 32.6633C32.7633 32.9367 31.9433 33.21 30.7133 33.21H21.42C20.19 33.0733 19.37 32.9367 18.6866 32.6633C17.8666 32.2533 17.32 31.98 16.6366 31.2967C15.9533 30.6133 15.5433 29.93 15.27 29.2467C14.9966 28.5633 14.7233 27.7433 14.7233 26.5133V17.22C14.86 15.99 14.9966 15.17 15.27 14.4867C15.68 13.6667 15.9533 13.12 16.6366 12.4367C17.32 11.7533 18.0033 11.3433 18.6866 11.07C19.37 10.7967 20.19 10.5233 21.42 10.5233Z" fill="#8C30F5"/>
</g>
<defs>
<filter id="filter0_d_26_430" x="0.199951" y="0" width="51.7333" height="51.7334" filterUnits="userSpaceOnUse" color-interpolation-filters="sRGB">
<feFlood flood-opacity="0" result="BackgroundImageFix"/>
<feColorMatrix in="SourceAlpha" type="matrix" values="0 0 0 0 0 0 0 0 0 0 0 0 0 0 0 0 0 0 127 0" result="hardAlpha"/>
<feOffset dy="4"/>
<feGaussianBlur stdDeviation="2"/>
<feComposite in2="hardAlpha" operator="out"/>
<feColorMatrix type="matrix" values="0 0 0 0 0 0 0 0 0 0 0 0 0 0 0 0 0 0 0.25 0"/>
<feBlend mode="normal" in2="BackgroundImageFix" result="effect1_dropShadow_26_430"/>
<feBlend mode="normal" in="SourceGraphic" in2="effect1_dropShadow_26_430" result="shape"/>
</filter>
</defs>
</svg>
