<svg width="44" height="44" viewBox="0 0 44 44" fill="none" xmlns="http://www.w3.org/2000/svg">
<path fill-rule="evenodd" clip-rule="evenodd" d="M22.1333 0C10.0567 0 0.266602 9.79004 0.266602 21.8667C0.266602 33.9433 10.0567 43.7333 22.1333 43.7333C34.2099 43.7333 43.9999 33.9433 43.9999 21.8667C43.9999 9.79004 34.2099 0 22.1333 0ZM26.3948 10.9333C26.3948 11.2583 26.4252 11.5783 26.4811 11.888C26.75 13.3196 27.5973 14.5482 28.7742 15.3148C29.596 15.8529 30.5699 16.1627 31.6199 16.1627L31.6198 17.0003V19.9196C29.6718 19.9196 27.8659 19.2952 26.3948 18.2391V25.88C26.3948 29.6928 23.2903 32.8 19.4807 32.8C18.0096 32.8 16.6399 32.3328 15.5188 31.5459C13.7333 30.2918 12.5666 28.2204 12.5666 25.88C12.5666 22.0621 15.666 18.9601 19.4756 18.9651C19.7952 18.9651 20.1047 18.9905 20.409 19.0312V19.9196L20.3979 19.9249L20.409 19.9247V22.8693C20.1148 22.7779 19.8003 22.7221 19.4756 22.7221C17.7357 22.7221 16.3204 24.1386 16.3204 25.88C16.3204 27.0935 17.0103 28.1444 18.0147 28.6775C18.0241 28.6903 18.0336 28.7031 18.0431 28.7158L18.06 28.738C18.0484 28.7157 18.0351 28.6938 18.0198 28.6724C18.4611 28.9059 18.9582 29.0379 19.4858 29.0379C21.1851 29.0379 22.5751 27.6824 22.6359 25.9968L22.641 10.9333H26.3948Z" fill="#8C30F5"/>
</svg>
