<svg width="44" height="44" viewBox="0 0 44 44" fill="none" xmlns="http://www.w3.org/2000/svg">
<path fill-rule="evenodd" clip-rule="evenodd" d="M0.0666504 21.8667C0.0666504 9.79004 9.85669 0 21.9333 0C34.0099 0 43.8 9.79004 43.8 21.8667C43.8 33.9433 34.0099 43.7333 21.9333 43.7333C9.85669 43.7333 0.0666504 33.9433 0.0666504 21.8667ZM30.27 15.7167C31.2267 15.58 32.0466 15.4433 32.8666 15.0333C32.32 15.99 31.5 16.81 30.5433 17.3567C30.8167 23.78 26.17 30.75 17.8333 30.75C15.3733 30.75 13.05 29.93 11 28.7C13.3233 28.9733 15.7833 28.29 17.4233 27.06C15.3733 27.06 13.7333 25.6933 13.1867 23.9167C13.87 24.0533 14.5533 23.9167 15.2367 23.78C13.1867 23.2333 11.6833 21.32 11.6833 19.27C12.3667 19.5433 13.05 19.8167 13.7333 19.8167C11.82 18.45 11.1367 15.8533 12.3667 13.8033C14.69 16.5367 17.97 18.3133 21.66 18.45C20.9767 15.7167 23.1633 12.9833 26.0333 12.9833C27.2633 12.9833 28.4933 13.53 29.3133 14.35C30.4066 14.0767 31.3633 13.8033 32.1833 13.2567C31.91 14.35 31.2267 15.17 30.27 15.7167Z" fill="#8C30F5"/>
</svg>
