<svg width="44" height="44" viewBox="0 0 44 44" fill="none" xmlns="http://www.w3.org/2000/svg">
<path d="M25.5533 21.8667L19.8133 18.5867V25.1467L25.5533 21.8667Z" fill="#8C30F5"/>
<path fill-rule="evenodd" clip-rule="evenodd" d="M0.133301 21.8667C0.133301 9.79004 9.92334 0 22 0C34.0766 0 43.8666 9.79004 43.8666 21.8667C43.8666 33.9433 34.0766 43.7333 22 43.7333C9.92334 43.7333 0.133301 33.9433 0.133301 21.8667ZM30.4733 14.6233C31.43 14.8967 32.1133 15.58 32.3866 16.5367C32.9333 18.3133 32.9333 21.8667 32.9333 21.8667C32.9333 21.8667 32.9333 25.42 32.5233 27.1967C32.25 28.1533 31.5666 28.8367 30.61 29.11C28.8333 29.52 22 29.52 22 29.52C22 29.52 15.03 29.52 13.39 29.11C12.4333 28.8367 11.75 28.1533 11.4766 27.1967C11.0666 25.42 11.0666 21.8667 11.0666 21.8667C11.0666 21.8667 11.0666 18.3133 11.34 16.5367C11.6133 15.58 12.2966 14.8967 13.2533 14.6233C15.03 14.2133 21.8633 14.2133 21.8633 14.2133C21.8633 14.2133 28.8333 14.2133 30.4733 14.6233Z" fill="#8C30F5"/>
</svg>
